<?xml version="1.0" encoding="utf-8"?>
<svg viewBox="0 0 500 500" xmlns="http://www.w3.org/2000/svg">
  <path d="M 243.748 117.214 C 241.31 114.932 237.525 114.925 235.08 117.2 L 168.284 179.284 C 164.053 183.217 166.84 190.289 172.607 190.289 L 181.828 190.289 C 182.332 190.289 182.735 190.694 182.735 191.197 L 182.735 252.088 C 182.735 255.597 185.585 258.439 189.085 258.439 L 220.226 258.439 C 223.735 258.439 226.576 255.597 226.576 252.088 L 226.576 214.895 C 226.576 214.4 226.981 213.988 227.483 213.988 L 253.181 213.988 C 253.685 213.988 254.088 214.4 254.088 214.895 L 254.088 252.088 C 254.088 255.597 256.931 258.439 260.438 258.439 L 289.743 258.439 C 293.252 258.439 296.093 255.597 296.093 252.088 L 296.093 191.197 C 296.093 190.694 296.498 190.289 297 190.289 L 305.682 190.289 C 311.444 190.289 314.229 183.239 310.027 179.306 L 299.402 169.354 L 299.402 135.031 C 299.402 132.522 297.376 130.495 294.867 130.495 L 277.674 130.495 C 275.165 130.495 273.138 132.522 273.138 135.031 L 273.138 144.748 L 243.748 117.214 Z M 278.581 149.843 L 293.959 164.25 L 293.959 135.938 L 278.581 135.938 L 278.581 149.843 Z M 238.786 121.182 C 239.133 120.856 239.679 120.863 240.025 121.19 L 306.304 183.273 C 306.906 183.84 306.504 184.846 305.682 184.846 L 296.998 184.846 C 293.491 184.846 290.648 187.688 290.648 191.197 L 290.648 252.088 C 290.648 252.591 290.246 252.996 289.741 252.996 L 260.436 252.996 C 259.934 252.996 259.529 252.591 259.529 252.088 L 259.529 214.895 C 259.529 211.386 256.688 208.545 253.179 208.545 L 227.481 208.545 C 223.974 208.545 221.131 211.386 221.131 214.895 L 221.131 252.088 C 221.131 252.591 220.728 252.996 220.224 252.996 L 189.083 252.996 C 188.588 252.996 188.176 252.591 188.176 252.088 L 188.176 191.197 C 188.176 187.688 185.335 184.846 181.826 184.846 L 172.606 184.846 C 171.776 184.846 171.381 183.832 171.991 183.273 L 238.786 121.182 Z" fill-rule="evenodd" style=""/>
</svg>